<svg width="382" height="290" viewBox="0 0 382 290" fill="none" xmlns="http://www.w3.org/2000/svg">
<path fill-rule="evenodd" clip-rule="evenodd" d="M101.12 100.7C101.484 100.871 101.878 100.967 102.28 100.984C102.681 101.002 103.083 100.939 103.46 100.8C103.533 100.782 103.599 100.739 103.646 100.68C103.693 100.62 103.718 100.546 103.718 100.47C103.718 100.394 103.693 100.32 103.646 100.261C103.599 100.201 103.533 100.158 103.46 100.14C101.905 99.4715 100.583 98.3581 99.6598 96.9401C99.6358 96.867 99.5878 96.8041 99.5235 96.7619C99.4592 96.7196 99.3825 96.7004 99.3059 96.7073C99.2293 96.7143 99.1573 96.747 99.1017 96.8002C99.0461 96.8534 99.0102 96.9238 98.9998 97.0001C98.903 97.7634 99.0576 98.5375 99.4401 99.2051C99.8227 99.8727 100.412 100.398 101.12 100.7V100.7ZM251.62 51.8801C233.62 54.2201 221.78 55.8801 221.78 55.8801C221.46 55.8801 221.58 56.2001 221.58 56.5201V145.4C221.58 145.56 222.08 145.7 222.26 145.72C237.08 147.4 258.92 149.08 281.3 150.58C296.5 151.58 370 155.54 370 155.54C370.208 155.54 370.408 155.462 370.56 155.32C370.641 155.251 370.706 155.165 370.751 155.068C370.796 154.972 370.819 154.867 370.82 154.76C370.94 147.26 372.38 40.3401 372.38 40.3401C372.379 40.2278 372.355 40.1168 372.311 40.0137C372.266 39.9107 372.201 39.8176 372.12 39.7401C372.038 39.6609 371.94 39.5989 371.834 39.5577C371.727 39.5165 371.614 39.4969 371.5 39.5001C347.88 40.9801 320.94 43.6201 296.48 46.3801C279.76 48.3201 264.18 50.2401 251.62 51.8801ZM370.72 41.2801L369.24 153.98C365.36 153.82 296.58 150.42 281.36 149.52C259.14 148.2 237.36 146.7 222.58 145.16V57.1601C225.86 56.7001 295.66 48.0601 311.64 46.4001C331.46 44.3201 352.08 42.4401 370.72 41.2801V41.2801Z" fill="black"/>
<path fill-rule="evenodd" clip-rule="evenodd" d="M254.12 98.74C254.077 108.849 258.039 118.564 265.14 125.76C268.654 129.336 272.846 132.176 277.469 134.114C282.093 136.053 287.056 137.051 292.07 137.051C297.084 137.051 302.047 136.053 306.671 134.114C311.294 132.176 315.486 129.336 319 125.76C324.353 120.344 327.965 113.452 329.373 105.968C330.781 98.4844 329.919 90.7508 326.9 83.76C329.618 83.7695 332.282 83.0019 334.579 81.5477C336.875 80.0935 338.708 78.0133 339.862 75.5521C341.015 73.0909 341.441 70.3513 341.09 67.656C340.738 64.9606 339.624 62.4219 337.878 60.3389C336.131 58.2559 333.826 56.7154 331.234 55.8988C328.641 55.0822 325.869 55.0236 323.244 55.7299C320.62 56.4362 318.251 57.878 316.419 59.8853C314.586 61.8927 313.365 64.382 312.9 67.06C307.178 63.3279 300.556 61.2072 293.731 60.9211C286.905 60.6351 280.129 62.1943 274.115 65.4347C268.101 68.675 263.072 73.4767 259.556 79.3342C256.041 85.1918 254.17 91.8887 254.14 98.72L254.12 98.74ZM323.16 66.48L325.54 71.88L330.42 59.56L333.14 61.26L327.5 76.5L323.5 76.88L320.14 69.54L323.16 66.48ZM292.06 61.6C299.465 61.6206 306.682 63.9332 312.72 68.22V69.54C312.72 73.0569 314.022 76.4492 316.374 79.0637C318.726 81.6781 321.963 83.3296 325.46 83.7C328.44 90.4939 329.313 98.0259 327.965 105.321C326.618 112.617 323.111 119.34 317.9 124.62C314.531 128.031 310.518 130.739 306.095 132.588C301.671 134.436 296.924 135.388 292.13 135.388C287.336 135.388 282.589 134.436 278.165 132.588C273.742 130.739 269.729 128.031 266.36 124.62C259.545 117.713 255.71 108.41 255.676 98.7068C255.643 89.0039 259.414 79.6743 266.18 72.72C269.532 69.2321 273.55 66.451 277.995 64.5412C282.44 62.6313 287.222 61.6312 292.06 61.6V61.6Z" fill="black"/>
<path fill-rule="evenodd" clip-rule="evenodd" d="M270.66 84.16L277.36 84.34C277.48 85.28 281.36 111 281.36 111C281.388 111.193 281.484 111.369 281.631 111.497C281.778 111.625 281.965 111.697 282.16 111.7L305.4 111.2C305.473 111.182 305.539 111.139 305.586 111.08C305.632 111.02 305.658 110.946 305.658 110.87C305.658 110.794 305.632 110.72 305.586 110.661C305.539 110.601 305.473 110.558 305.4 110.54C305.4 110.54 293.78 110.16 291.4 110.12H282.8C282.68 109.3 282.44 107.8 282.14 105.9C284.14 105.9 303.42 105.42 303.42 105.42C303.612 105.417 303.797 105.344 303.94 105.216C304.084 105.087 304.176 104.911 304.2 104.72L306.2 90.56C306.212 90.4453 306.201 90.3293 306.166 90.2192C306.132 90.1091 306.075 90.0073 306 89.92C305.922 89.8317 305.827 89.761 305.72 89.7127C305.613 89.6644 305.497 89.6396 305.38 89.64C305.38 89.64 281.38 90.18 279.56 90.26C278.34 83.48 278.42 83.3 277.78 83.3L270.58 83.56C270.49 83.56 270.403 83.5959 270.339 83.6596C270.276 83.7234 270.24 83.8099 270.24 83.9C270.24 83.9902 270.276 84.0767 270.339 84.1405C270.403 84.2042 270.49 84.2401 270.58 84.2401L270.66 84.16ZM296.52 103.34V104.1C295.88 104.1 290.34 104.5 288.36 104.66C288.364 102.602 288.191 100.548 287.84 98.5201L296.74 98.3201C296.527 99.9844 296.453 101.664 296.52 103.34V103.34ZM298.8 92.34V91.2H304.54L303.74 97H302.06C301.1 97 299.9 96.9001 298.58 96.8801C298.75 95.3729 298.823 93.8565 298.8 92.34V92.34ZM298.42 98.34C299.82 98.24 301.08 98.1201 302.08 98.0201L303.62 97.86L302.8 103.86L297.42 104.14C297.42 103.96 297.42 103.76 297.56 103.54C297.984 101.798 298.272 100.026 298.42 98.2401V98.34ZM297.9 91.3C297.433 93.1124 297.105 94.9578 296.92 96.8201L287.62 97.08C287.344 95.0491 286.909 93.0429 286.32 91.08C290.62 91.14 293.6 91.18 297.9 91.2V91.3ZM287.56 104.82L282.14 105.22C281.8 103.22 281.42 100.84 281.02 98.42L283.2 98.54H286.2C286.476 100.635 286.931 102.703 287.56 104.72V104.82ZM285.56 91.12C285.574 93.1298 285.741 95.1356 286.06 97.12L283.26 97.36L280.96 97.58C280.8 96.56 280.04 92.1 279.84 90.94C280.84 91 283 91 285.48 91L285.56 91.12Z" fill="black"/>
<path fill-rule="evenodd" clip-rule="evenodd" d="M380.74 31.38C380.657 31.3035 380.559 31.2446 380.452 31.2068C380.346 31.169 380.233 31.1531 380.12 31.16C353.84 32.86 323.86 35.88 296.64 39.04C278.02 41.2 213.5 49.9 213.5 49.9C213.18 49.9 213.34 50.22 213.34 50.54V152.4C213.34 152.56 213.86 152.7 214.04 152.72C230.3 154.6 254.2 156.5 278.76 158.18C279.28 160.18 281.46 168.18 282.52 174.34C282.893 176.21 283.074 178.113 283.06 180.02C283.076 180.363 282.993 180.703 282.82 181C280.82 183 269.44 186.5 269.1 186.64C268.931 186.69 268.785 186.797 268.687 186.943C268.588 187.089 268.543 187.265 268.56 187.44L268.88 191.32C268.889 191.499 268.963 191.669 269.088 191.798C269.213 191.927 269.381 192.006 269.56 192.02C316.34 198.26 313.56 198.16 313.98 198.02C318.062 196.301 322.019 194.296 325.82 192.02C326.996 191.296 328.077 190.43 329.04 189.44C329.584 188.908 329.917 188.198 329.98 187.44C329.535 184.592 328.867 181.783 327.98 179.04C325.98 172.3 323.2 163.64 322.32 161.04L378.44 164.02C378.547 164.029 378.654 164.014 378.755 163.976C378.855 163.938 378.946 163.878 379.02 163.8C379.098 163.73 379.16 163.643 379.202 163.547C379.243 163.45 379.263 163.345 379.26 163.24C379.4 154.64 381 32.12 381 32.12C381.017 31.985 381.002 31.8479 380.957 31.7195C380.912 31.5911 380.837 31.4749 380.74 31.38V31.38ZM291.76 193.38L270.38 190.5L270.16 187.88H270.34C272 188.12 284.44 189.72 286.92 190C292.3 190.6 311.62 192.54 312.92 192.66C312.629 193.869 312.629 195.131 312.92 196.34L291.76 193.38ZM326.8 179.26C327.604 181.874 328.193 184.55 328.56 187.26C328.488 187.645 328.283 187.992 327.98 188.24C327.079 189.114 326.079 189.88 325 190.52C321.571 192.562 318.01 194.372 314.34 195.94C314.504 194.747 314.408 193.533 314.06 192.38C315.1 191.94 318.68 190.38 321.88 188.84C323.702 188.014 325.449 187.03 327.1 185.9C327.131 185.87 327.155 185.834 327.172 185.795C327.189 185.755 327.197 185.713 327.197 185.67C327.197 185.627 327.189 185.585 327.172 185.545C327.155 185.506 327.131 185.47 327.1 185.44C327.036 185.377 326.95 185.341 326.86 185.341C326.77 185.341 326.684 185.377 326.62 185.44C325.379 186.217 324.074 186.886 322.72 187.44C319.06 189.02 314.3 190.8 313.32 191.16C312.44 191.16 273.98 187.36 272.08 187.16C284.08 182.98 284.08 181.82 284.26 180.02C284.239 178.001 284.004 175.99 283.56 174.02C282.4 168.02 280.1 160.42 279.4 158.02L322.3 161H321.6C322.3 163.22 325 172.3 326.8 179.3V179.26ZM377.7 162.24C373.56 162.06 296.74 158.24 279.8 157.1C255.06 155.56 230.82 153.84 214.34 152.06V51.12C217.84 50.62 295.7 40.68 313.48 38.76C335.48 36.38 358.58 34.2 379.34 32.88L377.7 162.24Z" fill="black"/>
<path fill-rule="evenodd" clip-rule="evenodd" d="M313.54 181.44C312.46 181.44 297.92 180.72 296.58 180.7C295.24 180.68 288.08 180.7 288.08 180.7C288.035 180.697 287.991 180.703 287.948 180.718C287.906 180.733 287.867 180.756 287.834 180.785C287.8 180.815 287.773 180.851 287.753 180.891C287.734 180.932 287.723 180.975 287.72 181.02C287.72 181.107 287.753 181.19 287.812 181.254C287.872 181.317 287.953 181.355 288.04 181.36C288.9 181.36 299.94 182.74 313.48 182.92H321.98C322.023 182.926 322.066 182.922 322.107 182.91C322.148 182.897 322.186 182.876 322.218 182.848C322.251 182.819 322.276 182.784 322.294 182.745C322.311 182.706 322.32 182.663 322.32 182.62C322.323 182.575 322.317 182.531 322.302 182.488C322.287 182.446 322.264 182.407 322.235 182.374C322.205 182.34 322.169 182.313 322.129 182.293C322.088 182.274 322.045 182.263 322 182.26C322 182.26 315.5 181.6 313.54 181.44V181.44ZM349.46 106L351.64 110L353.38 108.74L351.28 105.12L354.54 103.54L345.82 95.84L346.32 107.52L349.46 106V106ZM339.7 117.92C339.68 117.959 339.668 118.002 339.666 118.046C339.663 118.09 339.669 118.134 339.684 118.175C339.699 118.216 339.723 118.254 339.753 118.286C339.783 118.318 339.82 118.343 339.86 118.36C340.555 118.864 341.276 119.331 342.02 119.76C342.86 120.24 344.78 121.1 345.68 121.46C346.22 121.68 349.32 122.82 349.56 122.3C349.58 122.261 349.592 122.218 349.594 122.174C349.597 122.13 349.591 122.086 349.576 122.045C349.561 122.004 349.537 121.966 349.507 121.934C349.477 121.902 349.44 121.877 349.4 121.86L348.54 121.26C346.33 119.849 343.924 118.771 341.4 118.06C340.62 117.84 340.14 117.76 340.14 117.76C340.06 117.725 339.97 117.722 339.888 117.752C339.806 117.782 339.739 117.842 339.7 117.92V117.92ZM331.86 135.32C330.706 133.449 329.078 131.917 327.14 130.88C327.11 130.85 327.074 130.826 327.034 130.81C326.995 130.793 326.953 130.785 326.91 130.785C326.867 130.785 326.825 130.793 326.785 130.81C326.746 130.826 326.71 130.85 326.68 130.88C326.65 130.91 326.626 130.946 326.609 130.986C326.593 131.025 326.585 131.067 326.585 131.11C326.585 131.153 326.593 131.195 326.609 131.234C326.626 131.274 326.65 131.31 326.68 131.34C326.814 131.624 326.968 131.898 327.14 132.16C328.291 133.956 329.881 135.43 331.76 136.44C331.788 136.474 331.823 136.501 331.863 136.519C331.903 136.538 331.946 136.547 331.99 136.547C332.034 136.547 332.077 136.538 332.117 136.519C332.157 136.501 332.192 136.474 332.22 136.44C332.278 136.377 332.31 136.295 332.31 136.21C332.31 136.125 332.278 136.043 332.22 135.98L331.86 135.32ZM247.54 110.02C247.491 109.948 247.417 109.895 247.333 109.873C247.248 109.851 247.158 109.861 247.08 109.9C242.914 111.453 239.03 113.675 235.58 116.48C235.507 116.529 235.455 116.603 235.433 116.687C235.411 116.772 235.421 116.862 235.46 116.94C235.506 117.016 235.58 117.071 235.666 117.094C235.751 117.116 235.843 117.104 235.92 117.06C240.076 115.487 243.957 113.266 247.42 110.48C247.492 110.431 247.545 110.357 247.567 110.273C247.589 110.188 247.579 110.098 247.54 110.02V110.02ZM257 126.48C255.08 127.615 253.289 128.956 251.66 130.48C245.48 135.86 247.08 135.98 247.42 135.66C247.42 135.66 247.98 135.34 248.84 134.76C252.031 132.55 254.928 129.942 257.46 127C257.493 126.972 257.52 126.939 257.54 126.901C257.559 126.863 257.572 126.821 257.575 126.778C257.579 126.736 257.574 126.693 257.561 126.652C257.548 126.611 257.528 126.573 257.5 126.54C257.472 126.507 257.439 126.48 257.401 126.46C257.363 126.441 257.321 126.428 257.278 126.425C257.236 126.421 257.192 126.426 257.152 126.439C257.111 126.452 257.073 126.472 257.04 126.5L257 126.48ZM288.22 217.48C286.619 216.388 284.858 215.551 283 215C282.931 214.663 282.795 214.344 282.6 214.06C282.245 213.581 281.796 213.179 281.28 212.88C279.52 211.883 277.572 211.263 275.56 211.06C273.054 210.748 270.509 211.071 268.16 212C264.4 213.56 255.18 219.22 244.9 222.9C239.627 224.945 234.035 226.042 228.38 226.14C220.67 226.179 212.983 227.004 205.44 228.6C195.62 230.6 186.84 233.24 183.7 235.18L177.44 226.06H177.62C179.014 225.522 180.353 224.852 181.62 224.06C182.543 223.565 183.354 222.884 184 222.06C184.044 221.988 184.068 221.905 184.068 221.82C184.068 221.735 184.044 221.652 184 221.58C183.932 221.454 183.817 221.361 183.68 221.32C183.467 221.186 183.239 221.078 183 221C180.533 220.903 178.063 220.944 175.6 221.12C170.271 207.638 163.455 194.792 155.28 182.82C150.448 175.723 145.1 168.992 139.28 162.68C141.6 158.32 144.22 153.14 148.66 143.2C150.289 142.405 151.691 141.214 152.74 139.736C153.788 138.258 154.448 136.54 154.66 134.74C157.06 135.66 158.66 132.22 159.16 129.46C162.24 130.66 167.8 132.78 170.94 133.78C171.452 133.967 171.981 134.101 172.52 134.18C174.66 134.18 182.52 122.68 183.92 120.18C184.329 119.517 184.588 118.773 184.68 118C184.658 117.741 184.576 117.49 184.441 117.268C184.305 117.046 184.12 116.858 183.9 116.72C180.82 114.36 167.22 111.24 162.04 110.46C157.56 109.8 157.7 109.96 154.96 113.44C153.92 114.76 152.78 116.32 151.8 117.68C149.984 117.743 148.179 118.004 146.42 118.46C140.3 120.06 138.42 122.26 137.38 126C136.514 128.919 136.116 131.957 136.2 135C131.24 139.9 127.56 143.78 123.62 148.04C113.344 139.469 102.085 132.151 90.08 126.24L91.28 118.24C98.16 118.24 107.66 116.24 110.1 109.78C111.233 106.593 112.09 103.314 112.66 99.98C113.44 95.6 113.76 91.78 113.86 90.46L117.74 88.64C117.908 88.5616 118.042 88.4259 118.119 88.2573C118.196 88.0887 118.211 87.8983 118.16 87.72C118.16 87.72 113.34 69.72 113.04 68.48C115.54 67.92 117.4 67.4 117.4 67.4C117.4 35.4 87.4 28.7 87.4 28.7C87.4 28.7 96.88 16.7 98 8.94002C99.12 1.18002 89.6 -1.41998 77.1 1.92002C64.6 5.26002 72.76 27.3 72.76 27.3C67.06 26.04 56.3 32.48 56.3 32.48C48.3 -9.21998 26.4 8.28002 24.3 20.62C22.2 32.96 50 35.78 50 35.78C31.38 43.58 24.84 106.5 24.84 106.5C29.12 109.8 37.64 111.82 46.84 113.04C29.4835 125.279 16.1809 142.426 8.63997 162.28C5.33455 170.842 3.08463 179.774 1.93997 188.88C-0.185893 207.096 1.17155 225.551 5.93997 243.26C8.96614 255.037 12.9804 266.538 17.94 277.64C17.9745 277.72 18.0391 277.782 18.1198 277.814C18.1597 277.83 18.2023 277.838 18.2453 277.837C18.2882 277.836 18.3306 277.827 18.37 277.81C18.4094 277.793 18.445 277.768 18.4749 277.737C18.5047 277.707 18.5282 277.67 18.544 277.63C18.5598 277.59 18.5676 277.548 18.5669 277.505C18.5662 277.462 18.557 277.419 18.54 277.38C13.7571 266.256 9.89742 254.757 6.99997 243C2.44166 225.382 1.23405 207.064 3.43997 189C4.61374 180.023 6.86324 171.22 10.14 162.78C17.6804 143.049 31.0191 126.064 48.4 114.06C80.86 118.62 125.14 142.06 154.26 183.52C162.519 195.384 169.434 208.129 174.88 221.52C167.571 228.253 159.519 234.13 150.88 239.04C146.547 241.516 142.058 243.707 137.44 245.6C132.842 247.504 128.092 249.016 123.24 250.12C119.64 245 102.26 215 102.12 214.84C102.101 214.801 102.074 214.767 102.042 214.739C102.009 214.711 101.971 214.689 101.93 214.676C101.889 214.663 101.845 214.659 101.802 214.663C101.76 214.667 101.718 214.679 101.68 214.7C101.639 214.719 101.602 214.746 101.572 214.78C101.542 214.815 101.519 214.855 101.506 214.898C101.493 214.942 101.489 214.988 101.495 215.033C101.501 215.078 101.516 215.121 101.54 215.16C101.54 215.16 102.34 216.92 103.7 219.7C108.3 229.08 115.86 242.56 122.64 250.52C120.64 253.74 117.16 260.92 120.96 260.62C123.34 260.44 126.32 257.4 126.96 257.02C136.042 266.668 146.454 274.971 157.88 281.68C166 286.2 174.9 289.5 183.6 289.68H183.72C195.38 287.68 207.72 281.12 219.16 272.98C238.58 259.16 255.54 240.98 262.86 233.6C264.07 232.388 265.359 231.259 266.72 230.22C268.907 230.603 271.12 230.81 273.34 230.84C275.006 230.869 276.671 230.762 278.32 230.52C281.158 230.191 283.889 229.242 286.32 227.74C287.62 226.946 288.765 225.922 289.7 224.72C290.413 223.83 290.795 222.72 290.78 221.58C290.75 220.874 290.544 220.186 290.18 219.58C289.682 218.75 289.014 218.034 288.22 217.48V217.48ZM57 114.08C71.32 115.18 84.58 114.86 84.58 114.86C83.86 110.1 77.42 87.34 77.42 87.34C72.4 87.74 68 84.14 71.1 77.16C74.2 70.18 81.44 75.16 81.44 75.16C87.4579 73.1157 92.8829 69.6272 97.24 65C97.8407 66.6772 98.7957 68.2052 100.04 69.48C101.32 70.78 107.64 69.66 112.28 68.64C112.6 70.4 113.14 73.02 113.74 75.74C114.18 77.84 116.2 86.46 116.44 87.46L112.68 89C111.76 89.42 112.68 90.12 110.96 99.5C110.416 102.736 109.6 105.921 108.52 109.02C107.999 110.234 107.244 111.332 106.296 112.252C105.349 113.172 104.228 113.895 103 114.38C99.1 115.97 94.9492 116.857 90.74 117C90.6 116.994 90.4634 117.043 90.3589 117.137C90.2544 117.23 90.1902 117.36 90.18 117.5L88.08 125.28C78.1845 120.365 67.7557 116.607 57 114.08V114.08ZM155 133.4C154 133.4 155.46 128.56 155.52 128.26L158.1 129.26C157.72 130.64 156.56 133.38 155 133.4V133.4ZM158.06 111.52C162.92 111.74 180.46 116.14 182.64 118.2C182.22 120.3 175.78 128.78 173.32 131.44C171.72 133.14 175.32 134.02 150.98 125.72C152.22 123.84 154.12 120.48 152 119.72C151.699 119.636 151.381 119.636 151.08 119.72C153.216 116.807 155.577 114.065 158.14 111.52H158.06ZM153.92 127.52C153.58 128.66 153.06 132.02 152.04 131.52C151.02 131.02 151.44 128.08 151.9 126.74L153.92 127.52ZM126.18 150.26L124.18 148.56C125.34 147.52 132.18 141.26 132.8 140.56C135.44 138.02 137.62 135.88 137.62 135.88C137.706 135.795 137.773 135.691 137.814 135.577C137.856 135.463 137.871 135.341 137.86 135.22C137.678 132.276 137.948 129.322 138.66 126.46C139.039 124.637 140.07 123.016 141.56 121.9C144.439 120.129 147.653 118.971 151 118.5L149.9 120.06C145.9 122.22 140.94 129.36 140.78 129.56C140.752 129.593 140.732 129.631 140.719 129.672C140.706 129.713 140.701 129.756 140.705 129.798C140.708 129.841 140.721 129.883 140.74 129.921C140.76 129.959 140.787 129.992 140.82 130.02C140.853 130.048 140.891 130.068 140.932 130.081C140.973 130.094 141.016 130.099 141.058 130.095C141.101 130.092 141.143 130.079 141.181 130.06C141.219 130.04 141.252 130.013 141.28 129.98C142.04 129.26 150.36 120.76 151.46 121.2C152.56 121.64 145.46 130.84 146.12 131.38C146.78 131.92 150.3 126.88 150.68 126.3L151.34 126.56C150.22 128.74 149.34 131.72 151.5 132.94C151.763 133.085 152.059 133.162 152.36 133.162C152.661 133.162 152.957 133.085 153.22 132.94C153.28 133.376 153.437 133.793 153.68 134.16C153.287 136.469 152.081 138.562 150.28 140.06C146.28 143.6 148.76 137.74 141.6 154.54C140.96 156.02 140.38 157.46 139.88 158.7C139.38 159.94 138.84 161.32 138.56 162.06C134.633 157.922 130.501 153.984 126.18 150.26V150.26ZM121.6 258.76C121.36 258.873 121.103 258.947 120.84 258.98C121.459 256.363 122.485 253.859 123.88 251.56C128.703 250.426 133.425 248.901 138 247C142.657 245.031 147.175 242.746 151.52 240.16C160.178 235.037 168.201 228.907 175.42 221.9C177.871 221.751 180.329 221.751 182.78 221.9C182.214 222.376 181.605 222.798 180.96 223.16C179.745 223.871 178.466 224.467 177.14 224.94C176.766 225.02 176.415 225.184 176.113 225.419C175.812 225.655 175.568 225.956 175.4 226.3C174.94 227.48 175.88 228.52 174.7 230.3C173.1 232.64 170.88 231.36 168.08 232.02C164.74 232.8 166.08 238.02 164.08 239.74C162.08 241.46 157.96 238.42 156.08 241.22C155.04 242.8 155.56 245.38 154.64 246.82C153.72 248.26 148.94 244.26 146.12 247.14C145.192 248.551 144.357 250.021 143.62 251.54C142.24 253.66 140.22 251.06 137.62 250.92C132.82 250.68 136.64 262.04 130.2 256.92C129.583 256.397 128.913 255.941 128.2 255.56C125.88 254.26 125.18 257.26 121.6 258.76V258.76ZM261.6 232.34C254.32 239.62 237.44 257.8 218.16 271.64C206.94 279.64 194.9 286.26 183.44 288.28C174.96 288.28 166.26 285.04 158.32 280.72C147.177 274.308 136.973 266.387 128 257.18C128.509 257.502 128.997 257.856 129.46 258.24C137.12 264.24 136.22 252.46 137.82 252.54C140.74 252.68 143.16 257.24 146.68 249.68C146.886 249.156 147.177 248.67 147.54 248.24C149.68 246.04 154.22 250.84 156.24 247.64C157.6 245.46 156.66 241.88 158.24 241.64C159.82 241.4 161.26 242.2 162.94 241.94C168.26 241.16 165.8 233.94 168.44 233.32C169.432 233.111 170.446 233.024 171.46 233.06C172.244 233.08 173.024 232.951 173.76 232.68C174.585 232.331 175.283 231.738 175.76 230.98C177.1 228.98 176.24 227.5 176.5 226.76C176.539 226.661 176.609 226.577 176.7 226.52L183.24 236.42C183.266 236.463 183.301 236.499 183.342 236.527C183.384 236.554 183.431 236.573 183.48 236.58C183.576 236.619 183.684 236.619 183.78 236.58C186.56 234.7 195.54 231.8 205.6 229.92C213.072 228.338 220.683 227.507 228.32 227.44C234.137 227.403 239.901 226.326 245.34 224.26C255.66 220.64 264.94 215.04 268.72 213.5C270.823 212.677 273.099 212.395 275.34 212.68C276.9 212.858 278.42 213.29 279.84 213.96C280.365 214.182 280.831 214.525 281.2 214.96C281.271 215.071 281.325 215.193 281.36 215.32H280.96C280.323 215.024 279.651 214.809 278.96 214.68C276.236 214.178 273.444 214.178 270.72 214.68C270.615 214.696 270.514 214.732 270.423 214.787C270.332 214.842 270.253 214.914 270.189 214.999C270.126 215.085 270.081 215.182 270.055 215.285C270.029 215.388 270.024 215.495 270.04 215.6C270.056 215.705 270.092 215.806 270.147 215.897C270.202 215.988 270.274 216.067 270.359 216.131C270.445 216.194 270.542 216.239 270.645 216.265C270.748 216.291 270.855 216.296 270.96 216.28C272.887 216.01 274.836 215.923 276.78 216.02H277.82C278.226 216.085 278.627 216.179 279.02 216.3C280.06 216.53 280.983 217.126 281.62 217.98C278.378 217.48 275.067 217.664 271.9 218.52H271.66C271.471 218.593 271.315 218.732 271.22 218.911C271.125 219.091 271.099 219.298 271.145 219.495C271.191 219.693 271.307 219.867 271.472 219.985C271.636 220.104 271.838 220.159 272.04 220.14H272.32C274.365 219.696 276.448 219.441 278.54 219.38H280C280.624 219.434 281.241 219.555 281.84 219.74C282.051 219.816 282.253 219.916 282.44 220.04C282.538 220.101 282.646 220.141 282.76 220.16C282.964 220.268 283.143 220.418 283.285 220.601C283.426 220.784 283.527 220.995 283.58 221.22L283.32 221.34C282.963 221.477 282.595 221.584 282.22 221.66C278.782 222.271 275.426 223.278 272.22 224.66C268.261 226.555 264.682 229.158 261.66 232.34H261.6ZM288.36 223.54C287.515 224.639 286.47 225.569 285.28 226.28C283.053 227.643 280.567 228.528 277.98 228.88C276.399 229.155 274.803 229.329 273.2 229.4C271.328 229.5 269.452 229.5 267.58 229.4C268.66 228.64 269.7 228 270.72 227.4C274.82 225.356 279.191 223.908 283.7 223.1C284.92 222.7 285.36 222.04 285.28 221.26C285.215 220.767 285.037 220.295 284.76 219.882C284.482 219.469 284.112 219.126 283.68 218.88C283.52 217.921 283.057 217.038 282.36 216.36L282.6 216.12C282.71 215.974 282.798 215.812 282.86 215.64C283.9 216.111 284.902 216.659 285.86 217.28C287.031 217.994 288.018 218.974 288.74 220.14C289.039 220.672 289.168 221.283 289.111 221.89C289.054 222.497 288.813 223.073 288.42 223.54H288.36Z" fill="black"/>
<path fill-rule="evenodd" clip-rule="evenodd" d="M153.98 122.48C159.795 124.997 165.818 127.004 171.98 128.48C177.66 129.82 173.56 127.4 161.98 123.78C157.8 122.48 154.64 121.78 154.34 121.78C154.296 121.758 154.247 121.745 154.198 121.743C154.149 121.742 154.099 121.751 154.054 121.77C154.008 121.789 153.968 121.818 153.934 121.854C153.901 121.891 153.876 121.934 153.861 121.982C153.847 122.029 153.842 122.079 153.849 122.128C153.855 122.177 153.872 122.224 153.899 122.265C153.926 122.307 153.961 122.343 154.002 122.369C154.044 122.396 154.091 122.413 154.14 122.42L153.98 122.48ZM162.82 114.66L158.64 113.66L156.86 115.56L161.48 116.78L162.82 114.66ZM285 115C283.96 115 283.12 116.16 283.12 117.6C283.12 119.04 283.96 120.18 285 120.18C286.04 120.18 286.86 119.02 286.86 117.6C286.86 116.18 286.1 115 285 115ZM303.16 115C302.12 115 301.28 116.16 301.28 117.6C301.28 119.04 302.12 120.18 303.16 120.18C304.2 120.18 305.02 119.02 305.02 117.6C305.02 116.18 304.18 115 303.16 115ZM105.76 82.58C105.938 82.5829 106.114 82.5494 106.278 82.4816C106.442 82.4137 106.591 82.313 106.714 82.1856C106.838 82.0581 106.934 81.9067 106.997 81.7406C107.06 81.5746 107.088 81.3974 107.08 81.22C107.08 80.3 107.08 79.4 107.18 78.48C107.216 78.1139 107.112 77.7477 106.89 77.4548C106.667 77.1619 106.342 76.9637 105.98 76.9C104.22 76.66 104.44 79.12 104.44 81.1C104.433 81.4675 104.565 81.8241 104.81 82.0985C105.055 82.3728 105.394 82.5448 105.76 82.58V82.58Z" fill="black"/>
</svg>
